<mxfile host="Electron" modified="2023-11-19T16:44:53.779Z" agent="Mozilla/5.0 (Windows NT 10.0; Win64; x64) AppleWebKit/537.36 (KHTML, like Gecko) draw.io/22.1.2 Chrome/114.0.5735.289 Electron/25.9.4 Safari/537.36" etag="qDit-qmN7Q0jaOWK7ES-" version="22.1.2" type="device">
  <diagram name="Página-1" id="pxKvbQF3f9uGNhywQaaQ">
    <mxGraphModel dx="990" dy="1494" grid="1" gridSize="10" guides="1" tooltips="1" connect="1" arrows="1" fold="1" page="1" pageScale="1" pageWidth="827" pageHeight="1169" math="0" shadow="0">
      <root>
        <mxCell id="0" />
        <mxCell id="1" parent="0" />
        <mxCell id="oV1cLn-KE_i_Kfw5Tm_Q-27" style="edgeStyle=orthogonalEdgeStyle;rounded=0;orthogonalLoop=1;jettySize=auto;html=1;" edge="1" parent="1" source="oV1cLn-KE_i_Kfw5Tm_Q-5">
          <mxGeometry relative="1" as="geometry">
            <mxPoint x="153" y="200" as="targetPoint" />
          </mxGeometry>
        </mxCell>
        <mxCell id="oV1cLn-KE_i_Kfw5Tm_Q-5" value="" style="ellipse;whiteSpace=wrap;html=1;aspect=fixed;fillColor=#030303;" vertex="1" parent="1">
          <mxGeometry x="73" y="190" width="20" height="20" as="geometry" />
        </mxCell>
        <mxCell id="oV1cLn-KE_i_Kfw5Tm_Q-42" style="edgeStyle=orthogonalEdgeStyle;rounded=0;orthogonalLoop=1;jettySize=auto;html=1;entryX=0;entryY=0.5;entryDx=0;entryDy=0;exitX=0.997;exitY=0.253;exitDx=0;exitDy=0;exitPerimeter=0;" edge="1" parent="1" source="oV1cLn-KE_i_Kfw5Tm_Q-65">
          <mxGeometry relative="1" as="geometry">
            <mxPoint x="569.4799999999998" y="200" as="sourcePoint" />
            <mxPoint x="663.48" y="200" as="targetPoint" />
          </mxGeometry>
        </mxCell>
        <mxCell id="oV1cLn-KE_i_Kfw5Tm_Q-43" value="datos válidos/&lt;br&gt;Guardar en la BBDD" style="edgeLabel;html=1;align=center;verticalAlign=middle;resizable=0;points=[];fontSize=8;" vertex="1" connectable="0" parent="oV1cLn-KE_i_Kfw5Tm_Q-42">
          <mxGeometry x="-0.1605" y="-1" relative="1" as="geometry">
            <mxPoint x="5" y="-15" as="offset" />
          </mxGeometry>
        </mxCell>
        <mxCell id="oV1cLn-KE_i_Kfw5Tm_Q-53" value="Cumplimentando datos" style="swimlane;fontStyle=0;childLayout=stackLayout;horizontal=1;startSize=26;fillColor=none;horizontalStack=0;resizeParent=1;resizeParentMax=0;resizeLast=0;collapsible=1;marginBottom=0;whiteSpace=wrap;html=1;rounded=1;" vertex="1" parent="1">
          <mxGeometry x="283" y="290" width="153" height="78" as="geometry" />
        </mxCell>
        <mxCell id="oV1cLn-KE_i_Kfw5Tm_Q-54" value="entry/Mostrar formularios" style="text;strokeColor=none;fillColor=none;align=left;verticalAlign=top;spacingLeft=4;spacingRight=4;overflow=hidden;rotatable=0;points=[[0,0.5],[1,0.5]];portConstraint=eastwest;whiteSpace=wrap;html=1;" vertex="1" parent="oV1cLn-KE_i_Kfw5Tm_Q-53">
          <mxGeometry y="26" width="153" height="26" as="geometry" />
        </mxCell>
        <mxCell id="oV1cLn-KE_i_Kfw5Tm_Q-56" value="exit/Validación de datos" style="text;strokeColor=none;fillColor=none;align=left;verticalAlign=top;spacingLeft=4;spacingRight=4;overflow=hidden;rotatable=0;points=[[0,0.5],[1,0.5]];portConstraint=eastwest;whiteSpace=wrap;html=1;" vertex="1" parent="oV1cLn-KE_i_Kfw5Tm_Q-53">
          <mxGeometry y="52" width="153" height="26" as="geometry" />
        </mxCell>
        <mxCell id="oV1cLn-KE_i_Kfw5Tm_Q-58" style="edgeStyle=orthogonalEdgeStyle;rounded=0;orthogonalLoop=1;jettySize=auto;html=1;" edge="1" parent="oV1cLn-KE_i_Kfw5Tm_Q-53" source="oV1cLn-KE_i_Kfw5Tm_Q-53" target="oV1cLn-KE_i_Kfw5Tm_Q-56">
          <mxGeometry relative="1" as="geometry" />
        </mxCell>
        <mxCell id="oV1cLn-KE_i_Kfw5Tm_Q-59" value="continuación del registro&lt;br&gt;[datos no validos]/Mostrar error" style="edgeLabel;html=1;align=center;verticalAlign=middle;resizable=0;points=[];fontSize=8;" vertex="1" connectable="0" parent="oV1cLn-KE_i_Kfw5Tm_Q-58">
          <mxGeometry x="0.0392" y="1" relative="1" as="geometry">
            <mxPoint x="-16" y="12" as="offset" />
          </mxGeometry>
        </mxCell>
        <mxCell id="oV1cLn-KE_i_Kfw5Tm_Q-80" style="edgeStyle=orthogonalEdgeStyle;rounded=0;orthogonalLoop=1;jettySize=auto;html=1;entryX=0.5;entryY=0;entryDx=0;entryDy=0;" edge="1" parent="1" source="oV1cLn-KE_i_Kfw5Tm_Q-64" target="oV1cLn-KE_i_Kfw5Tm_Q-66">
          <mxGeometry relative="1" as="geometry">
            <Array as="points">
              <mxPoint x="529" y="120" />
              <mxPoint x="223" y="120" />
            </Array>
          </mxGeometry>
        </mxCell>
        <mxCell id="oV1cLn-KE_i_Kfw5Tm_Q-81" value="no cumple los requisitos de registro" style="edgeLabel;html=1;align=center;verticalAlign=middle;resizable=0;points=[];" vertex="1" connectable="0" parent="oV1cLn-KE_i_Kfw5Tm_Q-80">
          <mxGeometry x="-0.2918" y="1" relative="1" as="geometry">
            <mxPoint x="-53" y="-11" as="offset" />
          </mxGeometry>
        </mxCell>
        <mxCell id="oV1cLn-KE_i_Kfw5Tm_Q-64" value="Pendiente de validación" style="swimlane;fontStyle=0;childLayout=stackLayout;horizontal=1;startSize=26;fillColor=none;horizontalStack=0;resizeParent=1;resizeParentMax=0;resizeLast=0;collapsible=1;marginBottom=0;whiteSpace=wrap;html=1;rounded=1;" vertex="1" parent="1">
          <mxGeometry x="473.48" y="160" width="110" height="80" as="geometry" />
        </mxCell>
        <mxCell id="oV1cLn-KE_i_Kfw5Tm_Q-65" value="entry/Comprobar restricciones de usuario" style="text;strokeColor=none;fillColor=none;align=left;verticalAlign=top;spacingLeft=4;spacingRight=4;overflow=hidden;rotatable=0;points=[[0,0.5],[1,0.5]];portConstraint=eastwest;whiteSpace=wrap;html=1;" vertex="1" parent="oV1cLn-KE_i_Kfw5Tm_Q-64">
          <mxGeometry y="26" width="110" height="54" as="geometry" />
        </mxCell>
        <mxCell id="oV1cLn-KE_i_Kfw5Tm_Q-70" style="edgeStyle=orthogonalEdgeStyle;rounded=0;orthogonalLoop=1;jettySize=auto;html=1;entryX=0;entryY=0.5;entryDx=0;entryDy=0;" edge="1" parent="1" source="oV1cLn-KE_i_Kfw5Tm_Q-66" target="oV1cLn-KE_i_Kfw5Tm_Q-54">
          <mxGeometry relative="1" as="geometry" />
        </mxCell>
        <mxCell id="oV1cLn-KE_i_Kfw5Tm_Q-73" value="acceso al formulario&lt;br&gt;&amp;nbsp;de registro&lt;br style=&quot;font-size: 8px;&quot;&gt;[No se halla registrado &lt;br&gt;previamente en el sistema]" style="edgeLabel;html=1;align=center;verticalAlign=middle;resizable=0;points=[];fontSize=8;" vertex="1" connectable="0" parent="oV1cLn-KE_i_Kfw5Tm_Q-70">
          <mxGeometry x="-0.2752" y="-3" relative="1" as="geometry">
            <mxPoint x="-47" y="-34" as="offset" />
          </mxGeometry>
        </mxCell>
        <mxCell id="oV1cLn-KE_i_Kfw5Tm_Q-66" value="No registrado" style="swimlane;fontStyle=0;childLayout=stackLayout;horizontal=1;startSize=26;fillColor=none;horizontalStack=0;resizeParent=1;resizeParentMax=0;resizeLast=0;collapsible=1;marginBottom=0;whiteSpace=wrap;html=1;rounded=1;" vertex="1" parent="1">
          <mxGeometry x="153" y="176" width="140" height="64" as="geometry" />
        </mxCell>
        <mxCell id="oV1cLn-KE_i_Kfw5Tm_Q-68" value="do/Mostrar información para el registro" style="text;strokeColor=none;fillColor=none;align=left;verticalAlign=top;spacingLeft=4;spacingRight=4;overflow=hidden;rotatable=0;points=[[0,0.5],[1,0.5]];portConstraint=eastwest;whiteSpace=wrap;html=1;" vertex="1" parent="oV1cLn-KE_i_Kfw5Tm_Q-66">
          <mxGeometry y="26" width="140" height="38" as="geometry" />
        </mxCell>
        <mxCell id="oV1cLn-KE_i_Kfw5Tm_Q-79" style="edgeStyle=orthogonalEdgeStyle;rounded=0;orthogonalLoop=1;jettySize=auto;html=1;entryX=0.5;entryY=0;entryDx=0;entryDy=0;" edge="1" parent="1" source="oV1cLn-KE_i_Kfw5Tm_Q-71" target="oV1cLn-KE_i_Kfw5Tm_Q-77">
          <mxGeometry relative="1" as="geometry" />
        </mxCell>
        <mxCell id="oV1cLn-KE_i_Kfw5Tm_Q-71" value="Registrado" style="rounded=1;whiteSpace=wrap;html=1;" vertex="1" parent="1">
          <mxGeometry x="663.48" y="170" width="89.52" height="60" as="geometry" />
        </mxCell>
        <mxCell id="oV1cLn-KE_i_Kfw5Tm_Q-75" style="edgeStyle=orthogonalEdgeStyle;rounded=0;orthogonalLoop=1;jettySize=auto;html=1;entryX=0.482;entryY=1;entryDx=0;entryDy=0;entryPerimeter=0;" edge="1" parent="1" source="oV1cLn-KE_i_Kfw5Tm_Q-53" target="oV1cLn-KE_i_Kfw5Tm_Q-65">
          <mxGeometry relative="1" as="geometry">
            <Array as="points">
              <mxPoint x="527" y="329" />
              <mxPoint x="527" y="260" />
              <mxPoint x="527" y="260" />
            </Array>
          </mxGeometry>
        </mxCell>
        <mxCell id="oV1cLn-KE_i_Kfw5Tm_Q-76" value="&lt;font style=&quot;border-color: var(--border-color); font-size: 8px;&quot;&gt;continuación del &lt;br&gt;registro&lt;/font&gt;&lt;br style=&quot;border-color: var(--border-color); font-size: 8px;&quot;&gt;[datos validos]" style="edgeLabel;html=1;align=center;verticalAlign=middle;resizable=0;points=[];fontSize=8;" vertex="1" connectable="0" parent="oV1cLn-KE_i_Kfw5Tm_Q-75">
          <mxGeometry x="0.1188" y="-2" relative="1" as="geometry">
            <mxPoint x="-46" y="-9" as="offset" />
          </mxGeometry>
        </mxCell>
        <mxCell id="oV1cLn-KE_i_Kfw5Tm_Q-77" value="" style="ellipse;html=1;shape=endState;fillColor=#000000;strokeColor=#030303;" vertex="1" parent="1">
          <mxGeometry x="693" y="270" width="30" height="30" as="geometry" />
        </mxCell>
      </root>
    </mxGraphModel>
  </diagram>
</mxfile>
